<?xml version="1.0" encoding="utf-8"?>
<svg viewBox="0 0 161 161" fill="none" xmlns="http://www.w3.org/2000/svg">
<circle cx="80.0449" cy="80.0449" r="80.0449" fill="#C43430"/>
<path d="M96.2281 57.3472C96.2281 48.623 89.0883 41.5239 80.312 41.5239C71.5373 41.5239 64.3989 48.6215 64.3989 57.3472C64.3989 66.073 71.5373 73.172 80.312 73.172C89.0883 73.172 96.2281 66.073 96.2281 57.3472ZM80.312 70.262C73.1517 70.262 67.3263 64.4681 67.3263 57.3472C67.3263 50.2264 73.1517 44.434 80.312 44.434C87.4738 44.434 93.3007 50.2264 93.3007 57.3472C93.3007 64.4681 87.4738 70.262 80.312 70.262Z" fill="white"/>
<path d="M140.875 120.076H135.386V110.801C135.386 109.996 134.732 109.346 133.922 109.346H81.7786V90.1103H82.7856C84.5918 90.1103 86.0628 88.648 86.0628 86.8525V82.5675C86.0628 82.2197 86.4126 81.7497 86.7434 81.6552C86.7946 81.6406 86.8444 81.6231 86.8941 81.6028L92.9186 79.1351C92.9684 79.1147 93.0167 79.0914 93.065 79.0652C93.3739 78.9023 94.0135 79.0478 94.1935 79.2238L97.2365 82.2532C98.4704 83.4798 100.635 83.4812 101.872 82.2532L105.363 78.7742C105.983 78.1602 106.324 77.341 106.323 76.468C106.323 75.595 105.982 74.7773 105.366 74.1705L102.318 71.1397C102.078 70.9026 101.996 70.322 102.162 70.0296C102.19 69.9786 102.214 69.9277 102.236 69.8753L104.763 63.7541C104.862 63.4209 105.339 63.0673 105.688 63.0673H109.997C111.803 63.0673 113.273 61.6065 113.273 59.8095V54.8945C113.273 53.099 111.803 51.6367 109.997 51.6367H105.688C105.341 51.6367 104.864 51.2787 104.714 50.8073L102.238 44.817C102.216 44.7646 102.191 44.7122 102.163 44.6628C101.996 44.366 102.08 43.7956 102.326 43.5511L105.367 40.5276C106.645 39.2574 106.645 37.1913 105.369 35.921L101.866 32.4333C101.25 31.8266 100.43 31.4934 99.5564 31.4934C99.555 31.4934 99.5564 31.4934 99.555 31.4934C98.6812 31.4934 97.8615 31.8266 97.238 32.4392L94.1964 35.47C93.9681 35.694 93.3446 35.7813 93.0723 35.6344C93.024 35.6067 92.9728 35.5835 92.9201 35.5616L86.8956 33.0939C86.8502 33.075 86.8019 33.059 86.7536 33.0445C86.4184 32.947 86.0642 32.4726 86.0642 32.1234V27.8442C86.0642 26.0487 84.5932 24.5879 82.7871 24.5879H77.8428C76.0366 24.5879 74.567 26.0487 74.567 27.8442V32.1234C74.567 32.4726 74.2128 32.9455 73.8791 33.0445C73.8308 33.059 73.784 33.075 73.7371 33.0939L67.7126 35.5616C67.6614 35.5835 67.6116 35.6067 67.5619 35.6329C67.2618 35.8003 66.6163 35.6475 66.4378 35.4714L63.3918 32.4377C62.155 31.2184 59.9946 31.2199 58.7637 32.4406L55.2553 35.9225C53.9892 37.1898 53.9892 39.2545 55.2582 40.5276L58.3012 43.5497C58.5471 43.7941 58.6334 44.3703 58.4666 44.6715C58.4402 44.7181 58.4183 44.7661 58.3978 44.817L55.8715 50.9383C55.7675 51.2773 55.2918 51.6352 54.9435 51.6352H50.633C48.8282 51.6352 47.3602 53.0961 47.3602 54.893V59.8081C47.3602 61.6036 48.8282 63.0658 50.633 63.0658H54.9435C55.2933 63.0658 55.769 63.4209 55.9198 63.8879L58.3978 69.8739C58.4183 69.9234 58.4402 69.9699 58.4666 70.0165C58.6334 70.3206 58.5515 70.8968 58.3041 71.1412L55.2582 74.1691C53.9819 75.4364 53.9804 77.5011 55.2582 78.7713L58.7652 82.2604C60.0005 83.471 62.1521 83.4725 63.3948 82.2474L66.4319 79.2267C66.6163 79.0463 67.2589 78.8979 67.5663 79.0652C67.6131 79.0914 67.6614 79.1132 67.7112 79.1336L73.7357 81.6013C73.784 81.6217 73.8337 81.6377 73.885 81.6537C74.2158 81.7483 74.5656 82.2183 74.5656 82.566V86.851C74.5656 88.6465 76.0351 90.1088 77.8413 90.1088H78.8512V109.344H26.7077C25.8997 109.344 25.244 109.995 25.244 110.799V121.348H19.7552C18.9472 121.348 18.2915 121.998 18.2915 122.803V136.627C18.2915 137.432 18.9472 138.082 19.7552 138.082H33.6601C34.4681 138.082 35.1238 137.432 35.1238 136.627V122.805C35.1238 122 34.4681 121.35 33.6601 121.35H28.1713V112.256H51.2711V121.35H46.1014C45.2935 121.35 44.6377 122 44.6377 122.805V136.627C44.6377 137.432 45.2935 138.082 46.1014 138.082H60.0064C60.8143 138.082 61.47 137.432 61.47 136.627V122.805C61.47 122 60.8143 121.35 60.0064 121.35H54.1985V112.256H78.8512V121.35H73.3624C72.5545 121.35 71.8988 122 71.8988 122.805V136.627C71.8988 137.432 72.5545 138.082 73.3624 138.082H87.2674C88.0768 138.082 88.7311 137.432 88.7311 136.627V122.805C88.7311 122 88.0768 121.35 87.2674 121.35H81.7786V112.256H105.427V120.986H99.9385C99.129 120.986 98.4748 121.636 98.4748 122.441V136.263C98.4748 137.068 99.129 137.718 99.9385 137.718H113.843C114.653 137.718 115.307 137.068 115.307 136.263V122.441C115.307 121.636 114.653 120.986 113.843 120.986H108.355V112.256H132.458V120.076H126.97C126.16 120.076 125.506 120.727 125.506 121.531V135.354C125.506 136.159 126.16 136.809 126.97 136.809H140.875C141.684 136.809 142.338 136.159 142.338 135.354V121.531C142.338 120.727 141.684 120.076 140.875 120.076ZM32.1965 124.26V135.172H21.2189V124.26H32.1965ZM58.5427 124.26V135.172H47.5651V124.26H58.5427ZM85.8037 124.26V135.172H74.8261V124.26H85.8037ZM77.8398 87.2002C77.6554 87.2002 77.4915 87.0387 77.4915 86.8525V82.5675C77.4915 80.9713 76.3103 79.3737 74.7866 78.8863L68.888 76.4695C67.4858 75.7565 65.4805 76.0664 64.3652 77.1664L61.3295 80.1856C61.151 80.3602 60.9914 80.3544 60.8289 80.1958L57.3293 76.7139C57.199 76.5844 57.1976 76.356 57.3278 76.2265L60.3708 73.2015C61.5242 72.0622 61.8199 70.1431 61.0778 68.7026L58.6729 62.9131C58.1943 61.3402 56.5916 60.1544 54.942 60.1544H50.6315C50.4471 60.1544 50.2861 59.9928 50.2861 59.8066V54.8916C50.2861 54.7039 50.4441 54.5438 50.6315 54.5438H54.942C56.5887 54.5438 58.1914 53.3565 58.6246 51.9117L61.0763 45.9854C61.8169 44.5507 61.5198 42.6345 60.3694 41.4894L57.3307 38.4717C57.1961 38.3364 57.1946 38.1065 57.3264 37.977L60.8304 34.4995C61.0031 34.3292 61.1583 34.3351 61.3222 34.498L64.3681 37.5317C65.4805 38.6288 67.4887 38.9387 68.8894 38.2243L74.7881 35.8075C76.3352 35.3099 77.49 33.7414 77.49 32.122V27.8428C77.49 27.6551 77.6495 27.4965 77.8384 27.4965H82.7827C82.9729 27.4965 83.1325 27.6551 83.1325 27.8428V32.122C83.1325 33.7414 84.2888 35.3099 85.8359 35.8075L91.7331 38.2243C93.1382 38.9475 95.1449 38.6317 96.2602 37.5274L99.2974 34.5009C99.4686 34.3307 99.6325 34.3336 99.795 34.4951L103.292 37.977C103.426 38.1108 103.426 38.3364 103.292 38.4688L100.25 41.4908C99.0939 42.6403 98.8026 44.5566 99.552 45.9912L101.954 51.7793C102.431 53.3565 104.035 54.5453 105.682 54.5453H109.991C110.18 54.5453 110.339 54.7039 110.339 54.893V59.8081C110.339 59.9928 110.177 60.1558 109.991 60.1558H105.682C104.032 60.1558 102.428 61.3417 102.001 62.7807L99.552 68.6997C98.8129 70.1169 99.1085 72.0739 100.246 73.1986L103.296 76.2309C103.381 76.3138 103.391 76.4156 103.391 76.4695C103.393 76.5233 103.38 76.6266 103.29 76.7139L99.795 80.1958C99.6208 80.3704 99.4745 80.366 99.3032 80.1958L96.2573 77.165C95.1522 76.0693 93.1397 75.7565 91.736 76.4695L85.8388 78.8863C84.3137 79.3722 83.1325 80.9698 83.1325 82.5675V86.8525C83.1325 87.0416 82.9729 87.2002 82.7827 87.2002H77.8398ZM112.38 123.896V134.808H101.402V123.896H112.38ZM139.411 133.899H128.433V122.986H139.411V133.899Z" fill="white"/>
</svg>
