<?xml version="1.0" encoding="utf-8"?>
<svg viewBox="0 0 161 161" fill="none" xmlns="http://www.w3.org/2000/svg">
<circle cx="80.0449" cy="80.0449" r="80.0449" fill="#C43430"/>
<circle cx="80.0449" cy="80.0449" r="80.0449" fill="#C43430"/>
<g mask="url(#mask0_704_537)">
</g>
<g clip-path="url(#clip0_704_537)">
<path d="M80.1031 67.2017C73.228 67.2017 67.6353 72.8895 67.6353 79.8815C67.6353 86.8764 73.228 92.5672 80.1031 92.5672C86.9781 92.5672 92.5723 86.8764 92.5723 79.8815C92.5723 72.8895 86.9781 67.2017 80.1031 67.2017ZM80.1031 89.6399C74.8154 89.6399 70.5137 85.262 70.5137 79.8815C70.5137 74.504 74.8154 70.129 80.1031 70.129C85.3921 70.129 89.6939 74.504 89.6939 79.8815C89.6939 85.262 85.3921 89.6399 80.1031 89.6399Z" fill="white"/>
<path d="M102.752 75.0974H99.462C99.3425 75.0974 99.1022 74.913 99.0677 74.793L97.1276 69.976L97.0571 69.8267C96.9981 69.7199 97.0398 69.4301 97.1262 69.3423L99.449 66.9799C100.544 65.8616 100.544 64.0423 99.4476 62.9226L96.775 60.2001C95.7158 59.1302 93.8592 59.1258 92.7899 60.2045L90.4655 62.5727C90.4152 62.621 90.0251 62.6635 89.9906 62.643L85.2441 60.6436L85.106 60.5939C84.9879 60.5587 84.8124 60.3158 84.8124 60.1884V56.8468C84.8124 55.2646 83.5444 53.9766 81.9872 53.9766H78.215C76.6593 53.9766 75.3942 55.2646 75.3942 56.8468V60.1884C75.3942 60.3158 75.2172 60.5587 75.0992 60.5939L70.3613 62.5698L70.2131 62.6415C70.1757 62.662 69.7842 62.6152 69.7396 62.5727L67.4138 60.2001C66.3445 59.1258 64.4807 59.1302 63.4287 60.2031L60.7446 62.924C59.6608 64.0408 59.6608 65.8572 60.7518 66.9799L63.0775 69.3408C63.1639 69.4286 63.2042 69.7199 63.1466 69.8282L61.1403 74.7798C61.1001 74.9145 60.8539 75.0916 60.7402 75.0916H57.4502C55.8945 75.0916 54.6294 76.3796 54.6294 77.9633V81.8011C54.6294 83.3833 55.8945 84.6714 57.4502 84.6714H60.7402C60.864 84.6714 61.1029 84.8543 61.1864 85.1119L63.079 89.7855L63.1452 89.9274C63.2027 90.0343 63.1639 90.3299 63.0775 90.4163L60.746 92.786C59.6551 93.9057 59.6565 95.7221 60.7503 96.8375L63.4316 99.5672C64.4951 100.636 66.3474 100.636 67.4196 99.5555L69.7381 97.199C69.79 97.1463 70.1843 97.1068 70.2217 97.1273L74.961 99.1223L75.1064 99.1735C75.2229 99.2086 75.3957 99.4501 75.3957 99.576V102.919C75.3957 104.501 76.6607 105.789 78.2165 105.789H81.9886C83.5473 105.789 84.8138 104.501 84.8138 102.919V99.576C84.8138 99.4501 84.9865 99.2086 85.1016 99.1735L89.8452 97.1946L89.9849 97.1273C90.0223 97.1068 90.4137 97.1434 90.4655 97.1975L92.7884 99.5584C93.8491 100.644 95.7215 100.643 96.7808 99.5599L99.4447 96.8448C99.9772 96.3062 100.271 95.5875 100.272 94.819C100.272 94.0506 99.9801 93.3276 99.4476 92.7845L97.1219 90.4192C97.0398 90.3343 97.001 90.0416 97.0571 89.9377L99.0202 85.1149L99.0691 84.9729C99.1036 84.8529 99.3397 84.6743 99.462 84.6743H102.752C104.309 84.6743 105.577 83.3863 105.577 81.804V77.9663C105.577 76.3855 104.309 75.0974 102.752 75.0974ZM99.4634 81.7499C98.0919 81.7499 96.7635 82.7378 96.336 84.061L94.4939 88.6131C93.8693 89.8572 94.1182 91.5097 95.0897 92.4933L97.4126 94.7751L94.8278 97.4932L92.5035 95.1308C91.5694 94.1765 89.8841 93.9043 88.6896 94.5161L84.2079 96.394C82.9069 96.8258 81.9354 98.1797 81.9354 99.5804V102.868L78.2726 102.923V99.5804C78.2726 98.1782 77.3012 96.8258 75.9972 96.394L71.517 94.5161C70.3268 93.9057 68.6458 94.175 67.7046 95.1294L65.4608 97.4947L62.7882 94.8586L65.1097 92.4991C66.084 91.517 66.3373 89.863 65.717 88.616L63.8964 84.1371C63.4906 82.7774 62.1348 81.7513 60.7431 81.7513L57.5107 81.8084L57.4531 78.0277H60.7431C62.1334 78.0277 63.4891 77.0017 63.8504 75.7707L65.7185 71.1558C66.3359 69.9116 66.0826 68.2591 65.1125 67.277L62.7882 64.9981L65.3846 62.2815L67.7103 64.6526C68.6515 65.604 70.3354 65.8733 71.5213 65.2571L76.0016 63.3807C77.3026 62.946 78.2741 61.5921 78.2741 60.1943L78.2165 56.9098L81.9354 56.8527V60.1943C81.9354 61.5906 82.9054 62.9445 84.205 63.3807L88.6853 65.2571C89.8769 65.8733 91.5622 65.6026 92.5006 64.6468L94.7429 62.2771L97.4111 64.9176L95.0926 67.2755C94.1197 68.2621 93.8678 69.9146 94.491 71.1572L96.3332 75.7137C96.7621 77.0383 98.0919 78.0277 99.4606 78.0277L102.697 77.9721L102.751 81.7528H99.4634V81.7499Z" fill="white"/>
<path d="M118.77 77.1929C118.064 66.6881 113.378 57.0937 105.574 50.1764C98.515 43.9147 89.4739 40.4663 80.1177 40.4663C68.9048 40.4663 58.2533 45.3916 50.8889 53.979C36.8452 70.3605 38.5261 95.3118 54.6351 109.6C61.6916 115.857 70.7297 119.306 80.0831 119.306C91.2974 119.306 101.953 114.379 109.318 105.79C116.121 97.8528 119.478 87.6978 118.77 77.1929ZM107.147 103.866C100.331 111.818 90.4655 116.379 80.0831 116.379C71.4249 116.379 63.0588 113.188 56.5277 107.393C41.6147 94.1658 40.0589 71.0674 53.0607 55.9023C59.8767 47.9516 69.7381 43.3922 80.1191 43.3922C88.7802 43.3922 97.1492 46.5845 103.685 52.3821C110.909 58.7857 115.247 67.6673 115.901 77.392C116.554 87.1181 113.445 96.5194 107.147 103.866Z" fill="white"/>
<path d="M169.147 149.879C168.975 147.336 167.84 145.011 165.949 143.332L119.638 102.276C119.625 102.264 119.608 102.263 119.596 102.251C123.836 94.5479 125.803 85.7585 125.198 76.7437C124.373 64.4942 118.907 53.3044 109.807 45.2351C101.573 37.9343 91.0295 33.9136 80.1203 33.9136C67.0451 33.9136 54.6219 39.6571 46.0371 49.673C38.1013 58.9308 34.1853 70.7734 35.0099 83.0229C35.8346 95.2739 41.3007 106.461 50.4008 114.527C58.633 121.831 69.1752 125.853 80.0858 125.853C89.9788 125.853 99.4949 122.558 107.262 116.619C107.278 116.633 107.284 116.654 107.3 116.669L153.607 157.725C155.383 159.298 157.584 160.071 159.774 160.071C162.394 160.071 165.002 158.966 166.854 156.808C168.505 154.885 169.318 152.426 169.147 149.879ZM80.0872 122.926C69.8717 122.926 60.0017 119.16 52.2919 112.32C43.7718 104.769 38.6525 94.2933 37.8811 82.8224C37.1097 71.353 40.7754 60.2642 48.206 51.5977C56.2439 42.22 67.8756 36.8409 80.1189 36.8409C90.3329 36.8409 100.204 40.6055 107.914 47.4424C116.436 54.9979 121.554 65.4749 122.326 76.9443C123.099 88.4137 119.434 99.501 112.004 108.163C103.964 117.547 92.3305 122.926 80.0872 122.926ZM164.688 154.884C162.329 157.631 158.206 157.915 155.5 155.519L109.528 114.758C111.173 113.324 112.731 111.773 114.175 110.089C115.618 108.408 116.924 106.636 118.098 104.795L164.057 145.541C165.369 146.705 166.157 148.316 166.275 150.081C166.395 151.845 165.831 153.55 164.688 154.884Z" fill="white"/>
<path d="M83.8601 74.8703L78.8243 81.8359L76.169 79.3052C75.589 78.7534 74.678 78.7827 74.134 79.3711C73.5899 79.9609 73.6202 80.8875 74.1987 81.4407L78.0371 85.0999C78.3062 85.3561 78.6574 85.4966 79.0215 85.4966C79.0647 85.4966 79.1093 85.4951 79.1539 85.4907C79.5641 85.4527 79.9368 85.2375 80.1815 84.9009L86.1787 76.6062C86.6493 75.9549 86.5111 75.0386 85.8721 74.56C85.2331 74.077 84.3307 74.2189 83.8601 74.8703Z" fill="white"/>
</g>
<defs>
<clipPath id="clip0_704_537">
<rect width="137.924" height="128.072" fill="white" transform="translate(32.0181 32.0181)"/>
</clipPath>
</defs>
</svg>
