<?xml version="1.0" encoding="utf-8"?>
<svg viewBox="0 0 161 161" fill="none" xmlns="http://www.w3.org/2000/svg">
<circle cx="80.0449" cy="80.0449" r="80.0449" fill="#C43430"/>
<path d="M125.885 31.7536H103.165V21.6396C103.165 20.8353 102.518 20.1825 101.716 20.1825H87.7463C87.0898 17.3673 84.5727 15.2661 81.5758 15.2661C78.579 15.2661 76.0618 17.3673 75.4053 20.1825H61.4355C60.6356 20.1825 59.9864 20.8353 59.9864 21.6396V31.7536H37.2709C36.471 31.7536 35.8218 32.4064 35.8218 33.2107V142.277C35.8218 143.083 36.471 143.734 37.2709 143.734H125.885C126.686 143.734 127.334 143.083 127.334 142.277V33.2107C127.334 32.4064 126.686 31.7536 125.885 31.7536ZM62.8861 23.0967H76.6878C77.4878 23.0967 78.137 22.444 78.137 21.6396C78.137 19.7322 79.6803 18.1804 81.5773 18.1804C83.4742 18.1804 85.0161 19.7322 85.0161 21.6396C85.0161 22.444 85.6639 23.0967 86.4653 23.0967H100.267V39.8552H62.8861V23.0967ZM124.436 140.82H38.7201V34.6678H59.9878V41.3124C59.9878 42.1167 60.637 42.7695 61.437 42.7695H101.716C102.518 42.7695 103.165 42.1167 103.165 41.3124V34.6678H124.436V140.82Z" fill="white"/>
<path d="M47.6279 55.7878H86.4695C87.2708 55.7878 87.9186 55.135 87.9186 54.3307C87.9186 53.5263 87.2708 52.8735 86.4695 52.8735H47.6279C46.8279 52.8735 46.1787 53.5263 46.1787 54.3307C46.1787 55.135 46.8279 55.7878 47.6279 55.7878Z" fill="white"/>
<path d="M91.3506 49.1227V59.5368C91.3506 60.3411 91.9984 60.9939 92.7997 60.9939H116.68C117.482 60.9939 118.129 60.3411 118.129 59.5368V49.1227C118.129 48.3183 117.482 47.6655 116.68 47.6655H92.7997C91.9984 47.6655 91.3506 48.3183 91.3506 49.1227ZM94.2489 50.5798H115.231V58.0797H94.2489V50.5798Z" fill="white"/>
<path d="M47.6279 73.1452H86.4695C87.2708 73.1452 87.9186 72.4924 87.9186 71.6881C87.9186 70.8838 87.2708 70.231 86.4695 70.231H47.6279C46.8279 70.231 46.1787 70.8838 46.1787 71.6881C46.1787 72.4924 46.8279 73.1452 47.6279 73.1452Z" fill="white"/>
<path d="M116.68 65.0225H92.7997C91.9984 65.0225 91.3506 65.6753 91.3506 66.4796V76.8937C91.3506 77.6981 91.9984 78.3509 92.7997 78.3509H116.68C117.482 78.3509 118.129 77.6981 118.129 76.8937V66.4796C118.129 65.6753 117.48 65.0225 116.68 65.0225ZM115.231 75.4366H94.2489V67.9367H115.231V75.4366Z" fill="white"/>
<path d="M47.6279 90.5022H86.4695C87.2708 90.5022 87.9186 89.8508 87.9186 89.045C87.9186 88.2392 87.2708 87.5879 86.4695 87.5879H47.6279C46.8279 87.5879 46.1787 88.2392 46.1787 89.045C46.1787 89.8508 46.8279 90.5022 47.6279 90.5022Z" fill="white"/>
<path d="M116.68 82.3804H92.7997C91.9984 82.3804 91.3506 83.0317 91.3506 83.8375V94.2516C91.3506 95.0574 91.9984 95.7088 92.7997 95.7088H116.68C117.482 95.7088 118.129 95.0574 118.129 94.2516V83.8375C118.129 83.0317 117.48 82.3804 116.68 82.3804ZM115.231 92.7945H94.2489V85.2946H115.231V92.7945Z" fill="white"/>
<path d="M116.68 99.7402H47.6279C46.8279 99.7402 46.1787 100.392 46.1787 101.197V113.058C46.1787 113.864 46.8279 114.516 47.6279 114.516H116.678C117.48 114.516 118.128 113.864 118.128 113.058V101.197C118.129 100.392 117.48 99.7402 116.68 99.7402ZM115.231 111.6H49.077V102.653H115.229V111.6H115.231Z" fill="white"/>
<path d="M116.68 120.569H47.6279C46.8279 120.569 46.1787 121.22 46.1787 122.026V133.887C46.1787 134.693 46.8279 135.344 47.6279 135.344H116.678C117.48 135.344 118.128 134.693 118.128 133.887V122.026C118.129 121.22 117.48 120.569 116.68 120.569ZM115.231 132.428H49.077V123.482H115.229V132.428H115.231Z" fill="white"/>
</svg>
