<?xml version="1.0" encoding="utf-8"?>
<svg viewBox="0 0 161 161" fill="none" xmlns="http://www.w3.org/2000/svg">
<circle cx="80.0449" cy="80.0449" r="80.0449" fill="#C43430"/>
<g clip-path="url(#clip0_255_1363)">
<path d="M69.8227 84.8145C73.8258 84.8145 77.437 83.1513 80.005 80.4963C82.6478 83.2206 86.32 84.8145 90.1782 84.8145C97.9541 84.8145 104.28 78.5713 104.28 70.8967C104.28 63.9807 99.136 58.2416 92.4291 57.173C92.4977 56.6447 92.545 56.1119 92.545 55.5731C92.545 47.9 86.2209 41.6567 78.4465 41.6567C70.6706 41.6567 64.345 47.8985 64.345 55.5731C64.345 56.3873 64.4487 57.1881 64.5951 57.9828C59.4025 60.0372 55.7212 65.0463 55.7212 70.8982C55.7227 78.5713 62.0484 84.8145 69.8227 84.8145ZM101.231 70.8967C101.231 76.9111 96.2736 81.8043 90.1797 81.8043C86.9956 81.8043 83.97 80.4211 81.8808 78.0746C83.1679 75.9749 83.9227 73.5246 83.9227 70.8967C83.9227 68.2642 83.1648 65.8094 81.8731 63.7082C83.9593 61.3587 86.9742 59.9906 90.1797 59.9906C96.2736 59.9906 101.231 64.8837 101.231 70.8967ZM78.448 44.6685C84.5403 44.6685 89.4965 49.5601 89.4965 55.5746C89.4965 56.0637 89.4569 56.5484 89.3883 57.0285C85.8 57.2287 82.4664 58.7639 80.0127 61.3046C77.4431 58.6465 73.8304 56.9803 69.8242 56.9803C69.0389 56.9803 68.2733 57.0601 67.523 57.182C67.4437 56.6507 67.3965 56.1149 67.3965 55.5731C67.3965 49.5601 72.3542 44.6685 78.448 44.6685ZM69.8227 59.9906C75.915 59.9906 80.8712 64.8837 80.8712 70.8982C80.8712 76.9126 75.915 81.8058 69.8227 81.8058C63.7289 81.8058 58.7712 76.9126 58.7712 70.8982C58.7712 64.8837 63.7304 59.9906 69.8227 59.9906Z" fill="white"/>
<path d="M90.18 86.7144C86.5627 86.7144 83.0614 87.6791 79.9839 89.4943C77.0041 87.7408 73.5363 86.7144 69.823 86.7144C58.8294 86.7144 49.8838 95.5434 49.8838 106.397V107.724C49.8838 108.557 50.567 109.229 51.4088 109.229H71.7688H88.2341H108.594C109.437 109.229 110.119 108.557 110.119 107.724V106.397C110.119 95.5434 101.175 86.7144 90.18 86.7144ZM71.7688 106.219H52.9353C53.0329 97.1072 60.5709 89.7246 69.8245 89.7246C79.075 89.7246 86.6115 97.1072 86.7076 106.219H71.7688ZM89.7499 106.219C89.6966 100.315 86.9943 95.0317 82.767 91.4555C85.0637 90.3387 87.5784 89.7246 90.18 89.7246C99.4321 89.7246 106.972 97.1072 107.068 106.219H89.7499Z" fill="white"/>
<path d="M80.0005 33.0098C53.7235 33.0098 32.3447 54.11 32.3447 80.0447C32.3447 105.979 53.7235 127.08 80.0005 127.08C106.278 127.08 127.656 105.979 127.656 80.0447C127.656 54.11 106.278 33.0098 80.0005 33.0098ZM80.0005 124.069C55.4055 124.069 35.3947 104.321 35.3947 80.0447C35.3947 55.7702 55.4055 36.02 80.0005 36.02C104.597 36.02 124.606 55.7702 124.606 80.0447C124.606 104.321 104.597 124.069 80.0005 124.069Z" fill="white"/>
<path d="M147.481 78.5397H140.962C140.158 46.5394 113.948 20.6694 81.5257 19.8777V13.8196C81.5257 12.9887 80.8425 12.3145 80.0007 12.3145C79.1589 12.3145 78.4757 12.9887 78.4757 13.8196V19.8777C46.053 20.6694 19.8416 46.5394 19.0394 78.5397H12.5201C11.6783 78.5397 10.9951 79.214 10.9951 80.0448C10.9951 80.8756 11.6783 81.5499 12.5201 81.5499H19.0394C19.8416 113.55 46.053 139.419 78.4757 140.212V145.894C78.4757 146.726 79.1589 147.399 80.0007 147.399C80.8425 147.399 81.5257 146.726 81.5257 145.894V140.212C113.948 139.419 140.158 113.55 140.962 81.5499H147.481C148.325 81.5499 149.006 80.8756 149.006 80.0448C149.006 79.214 148.325 78.5397 147.481 78.5397ZM131.469 81.5499H137.912C137.11 111.89 112.266 136.41 81.5257 137.202V131.219C81.5257 130.387 80.8425 129.714 80.0007 129.714C79.1589 129.714 78.4757 130.387 78.4757 131.219V137.202C47.735 136.41 22.89 111.89 22.0894 81.5499H28.5324C29.3742 81.5499 30.0574 80.8756 30.0574 80.0448C30.0574 79.214 29.3742 78.5397 28.5324 78.5397H22.0894C22.89 48.1995 47.735 23.6781 78.4757 22.8879V28.4945C78.4757 29.3253 79.1589 29.9996 80.0007 29.9996C80.8425 29.9996 81.5257 29.3253 81.5257 28.4945V22.8879C112.266 23.6781 137.11 48.1995 137.912 78.5397H131.469C130.626 78.5397 129.944 79.214 129.944 80.0448C129.944 80.8756 130.626 81.5499 131.469 81.5499Z" fill="white"/>
</g>
<defs>
<clipPath id="clip0_255_1363">
<rect width="140.299" height="135.461" fill="white" transform="translate(9.85156 12.3145)"/>
</clipPath>
</defs>
</svg>
