<?xml version="1.0" encoding="utf-8"?>
<svg viewBox="0 0 161 161" fill="none" xmlns="http://www.w3.org/2000/svg">
<circle cx="80.0449" cy="80.0449" r="80.0449" fill="#C43430"/>
<path d="M145.115 108.53H132.032V39.8907C132.032 39.1031 131.384 38.4639 130.582 38.4639H31.9693C31.1684 38.4639 30.5184 39.1031 30.5184 39.8907V108.528H17.4372C16.6363 108.528 15.9863 109.166 15.9863 109.955C15.9863 114.265 19.5265 120.916 24.2317 120.916H138.321C143.024 120.916 146.566 114.267 146.566 109.955C146.566 109.167 145.917 108.53 145.115 108.53ZM33.4202 41.3175H129.131V108.528H33.4202V41.3175ZM138.321 118.063H24.2317C22.0017 118.063 19.6353 114.511 19.0332 111.383H143.518C142.917 114.509 140.551 118.063 138.321 118.063Z" fill="white"/>
<path d="M72.9333 116.15H87.4422C88.2445 116.15 88.893 115.513 88.893 114.724C88.893 113.935 88.2445 113.297 87.4422 113.297H72.9333C72.1324 113.297 71.4824 113.935 71.4824 114.724C71.4824 115.513 72.1324 116.15 72.9333 116.15Z" fill="white"/>
<path d="M124.803 43.3633H37.0241C36.2232 43.3633 35.5732 44.0025 35.5732 44.7901V104.062C35.5732 104.851 36.2232 105.489 37.0241 105.489H124.803C125.605 105.489 126.254 104.851 126.254 104.062V44.7901C126.254 44.0025 125.605 43.3633 124.803 43.3633ZM123.352 102.635H38.475V46.2169H123.352V102.635Z" fill="white"/>
<path d="M53.0749 98.4477H79.2315C79.2315 98.4234 79.2402 98.4006 79.2416 98.3764C79.3591 98.4063 79.4723 98.4477 79.5985 98.4477H109.809C110.611 98.4477 111.26 97.8099 111.26 97.0209V52.4292C111.26 51.6416 110.611 51.0024 109.809 51.0024H79.6C78.7991 51.0024 78.1491 51.6416 78.1491 52.4292V55.5511H53.0749C52.274 55.5511 51.624 56.1903 51.624 56.9779V97.0209C51.624 97.8099 52.274 98.4477 53.0749 98.4477ZM81.0509 53.856H108.359V95.5941H81.0509V53.856ZM54.5258 58.4061H78.1491V95.5955H54.5258V58.4061Z" fill="white"/>
<path d="M58.1228 64.607H62.3274C63.1283 64.607 63.7783 63.9678 63.7783 63.1802C63.7783 62.3926 63.1283 61.7534 62.3274 61.7534H58.1228C57.3219 61.7534 56.6719 62.3926 56.6719 63.1802C56.6719 63.9678 57.3204 64.607 58.1228 64.607Z" fill="white"/>
<path d="M66.3059 64.607H74.943C75.7439 64.607 76.3939 63.9678 76.3939 63.1802C76.3939 62.3926 75.7439 61.7534 74.943 61.7534H66.3059C65.505 61.7534 64.855 62.3926 64.855 63.1802C64.855 63.9678 65.5035 64.607 66.3059 64.607Z" fill="white"/>
<path d="M58.1228 69.879H74.3843C75.1852 69.879 75.8352 69.2398 75.8352 68.4522C75.8352 67.6646 75.1852 67.0254 74.3843 67.0254H58.1228C57.3219 67.0254 56.6719 67.6646 56.6719 68.4522C56.6719 69.2398 57.3204 69.879 58.1228 69.879Z" fill="white"/>
<path d="M58.1228 75.2594H74.9429C75.7438 75.2594 76.3938 74.6202 76.3938 73.8326C76.3938 73.045 75.7438 72.4058 74.9429 72.4058H58.1228C57.3219 72.4058 56.6719 73.045 56.6719 73.8326C56.6719 74.6202 57.3204 75.2594 58.1228 75.2594Z" fill="white"/>
<path d="M58.1228 80.8179H68.7026C69.5035 80.8179 70.1535 80.1787 70.1535 79.3911C70.1535 78.6036 69.5035 77.9644 68.7026 77.9644H58.1228C57.3219 77.9644 56.6719 78.6036 56.6719 79.3911C56.6719 80.1787 57.3204 80.8179 58.1228 80.8179Z" fill="white"/>
<path d="M75.593 77.9644H71.8454C71.0445 77.9644 70.3945 78.6036 70.3945 79.3911C70.3945 80.1787 71.0445 80.8179 71.8454 80.8179H75.593C76.3939 80.8179 77.0439 80.1787 77.0439 79.3911C77.0439 78.6036 76.3954 77.9644 75.593 77.9644Z" fill="white"/>
<path d="M74.9414 83.5532H58.1228C57.3219 83.5532 56.6719 84.191 56.6719 84.98C56.6719 85.769 57.3219 86.4068 58.1228 86.4068H74.9429C75.7438 86.4068 76.3938 85.769 76.3938 84.98C76.3938 84.191 75.7438 83.5532 74.9414 83.5532Z" fill="white"/>
<path d="M69.1858 89.1411H58.1228C57.3219 89.1411 56.6719 89.7789 56.6719 90.5679C56.6719 91.3569 57.3219 91.9947 58.1228 91.9947H69.1858C69.9866 91.9947 70.6366 91.3569 70.6366 90.5679C70.6366 89.7789 69.9866 89.1411 69.1858 89.1411Z" fill="white"/>
<path d="M84.5407 58.4063H90.3443C91.1466 58.4063 91.7952 57.7671 91.7952 56.9795C91.7952 56.1919 91.1466 55.5527 90.3443 55.5527H84.5407C83.7384 55.5527 83.0898 56.1919 83.0898 56.9795C83.0898 57.7671 83.7384 58.4063 84.5407 58.4063Z" fill="white"/>
<path d="M94.092 58.4063H105.096C105.898 58.4063 106.546 57.7671 106.546 56.9795C106.546 56.1919 105.898 55.5527 105.096 55.5527H94.092C93.2897 55.5527 92.6411 56.1919 92.6411 56.9795C92.6411 57.7671 93.2897 58.4063 94.092 58.4063Z" fill="white"/>
<path d="M84.5407 63.2218H104.611C105.413 63.2218 106.062 62.5825 106.062 61.795C106.062 61.0074 105.413 60.3682 104.611 60.3682H84.5407C83.7384 60.3682 83.0898 61.0074 83.0898 61.795C83.0898 62.5825 83.7384 63.2218 84.5407 63.2218Z" fill="white"/>
<path d="M84.5407 67.7389H91.6747C92.4771 67.7389 93.1256 67.0996 93.1256 66.3121C93.1256 65.5245 92.4771 64.8853 91.6747 64.8853H84.5407C83.7384 64.8853 83.0898 65.5245 83.0898 66.3121C83.0898 67.0996 83.7384 67.7389 84.5407 67.7389Z" fill="white"/>
<path d="M105.095 64.8853H95.5427C94.7403 64.8853 94.0918 65.5245 94.0918 66.3121C94.0918 67.0996 94.7403 67.7389 95.5427 67.7389H105.095C105.898 67.7389 106.546 67.0996 106.546 66.3121C106.546 65.5245 105.898 64.8853 105.095 64.8853Z" fill="white"/>
<path d="M104.12 73.787C104.109 73.7742 104.091 73.7685 104.08 73.7571C101.88 71.2987 98.6695 69.7378 95.0858 69.7378C88.4712 69.7378 83.0898 75.0283 83.0898 81.5331C83.0898 88.0379 88.4712 93.3284 95.0858 93.3284C101.699 93.3284 107.079 88.0379 107.079 81.5331C107.079 78.5868 105.966 75.8944 104.144 73.8256C104.132 73.8127 104.131 73.7984 104.12 73.787ZM93.6349 90.3479C89.3098 89.663 85.9916 85.9762 85.9916 81.5317C85.9916 80.5087 86.1759 79.5299 86.4994 78.6139L93.6349 82.3849V90.3479ZM94.8884 79.8081L87.8778 76.1027C89.5405 73.9725 92.1492 72.5914 95.0858 72.5914C97.2926 72.5914 99.318 73.3704 100.894 74.6617L94.8884 79.8081ZM96.5367 90.3479V82.1809L102.794 76.8161C103.665 78.1873 104.176 79.7996 104.176 81.5317C104.176 85.9747 100.86 89.6601 96.5367 90.3479Z" fill="white"/>
</svg>
