<?xml version="1.0" encoding="utf-8"?>
<svg viewBox="0 0 161 161" fill="none" xmlns="http://www.w3.org/2000/svg">
<circle cx="80.0449" cy="80.0449" r="80.0449" fill="#C43430"/>
<g clip-path="url(#clip0_255_1414)">
<path d="M55.4843 74.7746C61.2524 74.7746 65.6709 73.1292 69.3566 69.6425C73.0784 72.831 77.9096 74.7746 83.1955 74.7746C94.9143 74.7746 104.448 65.2898 104.448 53.6322C104.448 41.9746 94.9143 32.4897 83.1955 32.4897C77.9038 32.4897 73.0683 34.4377 69.345 37.6334C65.4884 34.3181 60.6254 32.4897 55.4857 32.4897C43.7683 32.4897 34.2349 41.9746 34.2349 53.6322C34.2349 65.2898 43.7669 74.7746 55.4843 74.7746ZM83.1955 35.3699C93.317 35.3699 101.551 43.5624 101.551 53.6307C101.551 63.6991 93.317 71.8916 83.1955 71.8916C73.0755 71.8916 64.8425 63.6991 64.8425 53.6307C64.8425 43.5624 73.0755 35.3699 83.1955 35.3699ZM55.4843 35.3699C59.8491 35.3699 63.9823 36.8929 67.2856 39.6621C63.9736 43.3924 61.9447 48.2753 61.9447 53.6307C61.9447 58.9949 63.9794 63.8821 67.2987 67.6138C64.1604 70.5559 60.495 71.8916 55.4843 71.8916C45.3643 71.8916 37.1298 63.6991 37.1298 53.6307C37.1298 43.5624 45.3643 35.3699 55.4843 35.3699Z" fill="white"/>
<path d="M113.304 88.6318C106.387 88.6318 100.758 94.2323 100.758 101.114C100.758 107.999 106.387 113.601 113.304 113.601C120.222 113.601 125.851 107.999 125.851 101.114C125.851 94.2323 120.222 88.6318 113.304 88.6318ZM113.304 110.719C107.983 110.719 103.654 106.41 103.654 101.114C103.654 95.82 107.983 91.5135 113.304 91.5135C118.626 91.5135 122.954 95.82 122.954 101.114C122.954 106.41 118.626 110.719 113.304 110.719Z" fill="white"/>
<path d="M136.094 96.4037H132.784C132.663 96.4037 132.422 96.2222 132.388 96.1055L130.435 91.3638L130.365 91.2197C130.306 91.1131 130.346 90.8278 130.435 90.7399L132.772 88.4144C133.873 87.3137 133.873 85.5227 132.771 84.422L130.08 81.7392C129.014 80.6888 127.146 80.6831 126.07 81.7464L123.732 84.0762C123.68 84.1252 123.292 84.1669 123.256 84.1468L118.477 82.1801L118.339 82.1325C118.221 82.0979 118.044 81.8573 118.044 81.732V78.4426C118.044 76.8851 116.768 75.6172 115.2 75.6172H111.404C109.838 75.6172 108.565 76.8851 108.565 78.4426V81.732C108.565 81.8545 108.384 82.0979 108.267 82.1325L103.5 84.0762L103.349 84.1497C103.31 84.1655 102.92 84.1208 102.877 84.0805L100.537 81.7464C99.4635 80.6874 97.5866 80.6932 96.5266 81.7493L95.4911 82.778C95.481 82.7737 95.4737 82.765 95.4636 82.7622C91.6157 81.4957 86.8005 80.6773 83.1945 80.6773C78.2807 80.6773 73.5697 81.6916 69.2642 83.5186C69.1817 83.4566 69.1122 83.3831 69.0152 83.3399C64.7502 81.4236 60.9559 80.6773 55.4846 80.6773C39.1881 80.6773 25.0175 91.6664 21.0262 107.399C20.9176 107.831 21.0132 108.286 21.2884 108.636C21.5635 108.986 21.9849 109.192 22.431 109.192H50.1422H51.589H95.481L96.1747 110.871L96.2427 111.014C96.3007 111.117 96.2601 111.405 96.1732 111.493L93.83 113.823C92.7294 114.924 92.7294 116.713 93.8329 117.814L96.5295 120.497C97.5968 121.546 99.4606 121.547 100.541 120.484L102.874 118.164C102.925 118.112 103.32 118.073 103.358 118.094L108.13 120.057L108.276 120.108C108.393 120.142 108.567 120.38 108.567 120.504V123.795C108.567 125.352 109.84 126.62 111.405 126.62H115.201C116.769 126.62 118.045 125.352 118.045 123.795V120.504C118.045 120.38 118.218 120.142 118.334 120.108L123.107 118.16L123.249 118.092C123.288 118.071 123.682 118.11 123.732 118.161L126.068 120.484C127.136 121.556 129.017 121.553 130.087 120.487L132.769 117.814C133.305 117.284 133.599 116.575 133.6 115.819C133.6 115.062 133.306 114.35 132.771 113.819L130.43 111.49C130.348 111.407 130.309 111.119 130.365 111.016L132.339 106.269L132.388 106.129C132.423 106.011 132.661 105.835 132.784 105.835H136.094C137.661 105.835 138.937 104.567 138.937 103.01V99.2335C138.937 97.6716 137.661 96.4037 136.094 96.4037ZM49.0619 106.308H24.344C28.596 92.8219 41.1446 83.556 55.4846 83.556C59.6453 83.556 62.7329 84.0301 65.8624 85.1726C57.8597 89.6233 51.7121 97.1068 49.0619 106.308ZM52.0553 106.308C56.3072 92.8219 68.8544 83.556 83.1959 83.556C86.101 83.556 90.0242 84.1742 93.3347 85.1236C92.7859 86.1855 92.9423 87.524 93.8344 88.4188L96.1732 90.7414C96.2601 90.8278 96.3021 91.1145 96.2427 91.2211L94.2225 96.0983C94.1834 96.2308 93.9357 96.4037 93.8213 96.4037H90.5122C88.9467 96.4037 87.6723 97.6731 87.6723 99.232V103.008C87.6723 104.566 88.9467 105.834 90.5122 105.834H93.8213C93.9488 105.834 94.1848 106.011 94.2703 106.268L94.2877 106.308H52.0553ZM132.784 102.951C131.404 102.951 130.067 103.923 129.635 105.226L127.782 109.707C127.154 110.931 127.405 112.557 128.383 113.525L130.72 115.773L128.119 118.447L125.78 116.121C124.84 115.182 123.144 114.911 121.942 115.516L117.434 117.363C116.125 117.788 115.149 119.121 115.149 120.5V123.736L111.463 123.791V120.5C111.463 119.121 110.484 117.788 109.174 117.363L104.664 115.518C103.463 114.915 101.773 115.185 100.828 116.121L98.57 118.448L95.8807 115.853L98.2166 113.531C99.1985 112.562 99.4534 110.934 98.8278 109.708L96.9943 105.301C96.5888 103.961 95.2232 102.951 93.8213 102.951L90.5687 103.007L90.5122 99.2839H93.8213C95.2232 99.2839 96.5859 98.2739 96.948 97.0636L98.8278 92.5208C99.4505 91.2961 99.197 89.6708 98.2181 88.7012L95.8792 86.4578L98.4918 83.7837L100.832 86.1178C101.781 87.0543 103.475 87.3194 104.667 86.7114L109.175 84.8657C110.484 84.4364 111.462 83.1036 111.462 81.7291L111.404 78.4959L115.147 78.4397V81.7291C115.147 83.1036 116.124 84.4364 117.43 84.8657L121.938 86.7114C123.139 87.3194 124.83 87.0529 125.779 86.112L128.035 83.7794L130.72 86.38L128.387 88.7012C127.408 89.6723 127.154 91.2975 127.78 92.5208L129.635 97.0074C130.067 98.3099 131.404 99.2839 132.782 99.2839L136.039 99.2306L136.093 102.951H132.784Z" fill="white"/>
</g>
<defs>
<clipPath id="clip0_255_1414">
<rect width="120.683" height="96.0539" fill="white" transform="translate(19.7031 32.0181)"/>
</clipPath>
</defs>
</svg>
